/* XPM */
static char * dff_xpm[] = {
"64 64 318 2",
"  	c None",
". 	c #B4CC35",
"+ 	c #B3CB34",
"@ 	c #B1C934",
"# 	c #B3CB35",
"$ 	c #B2CA34",
"% 	c #A6BD30",
"& 	c #B4CC34",
"* 	c #B0C834",
"= 	c #B3CC35",
"- 	c #A8BE31",
"; 	c #B2CB31",
"> 	c #B0C92B",
", 	c #B0C92A",
"' 	c #B1C92D",
") 	c #B3CB33",
"! 	c #B2C934",
"~ 	c #A7BE31",
"{ 	c #B2CA30",
"] 	c #C1D559",
"^ 	c #DEE9A7",
"/ 	c #E6EEBC",
"( 	c #D7E495",
"_ 	c #B7CE3E",
": 	c #B4CC36",
"< 	c #D5E28E",
"[ 	c #FFFFFF",
"} 	c #FEFEFC",
"| 	c #FDFDF9",
"1 	c #C3D65F",
"2 	c #B3CB32",
"3 	c #AFC733",
"4 	c #C9DB70",
"5 	c #F6F9E8",
"6 	c #D9E59A",
"7 	c #D0E083",
"8 	c #E3ECB6",
"9 	c #FDFEFB",
"0 	c #BCD14C",
"a 	c #B4CB35",
"b 	c #AFC827",
"c 	c #F5F8E4",
"d 	c #FAFCF3",
"e 	c #C9DA6F",
"f 	c #E1EBAF",
"g 	c #DFE9AA",
"h 	c #B0C92C",
"i 	c #A9BF32",
"j 	c #F0F4D6",
"k 	c #B6CD3B",
"l 	c #B2CA31",
"m 	c #C5D863",
"n 	c #FEFEFD",
"o 	c #EDF3D0",
"p 	c #EEF3D3",
"q 	c #C1D65A",
"r 	c #EFF4D3",
"s 	c #B0CA2C",
"t 	c #ADC433",
"u 	c #B3CC34",
"v 	c #B6CD3A",
"w 	c #EEF4D3",
"x 	c #C2D65B",
"y 	c #AFC929",
"z 	c #AEC826",
"A 	c #BED352",
"B 	c #EEF3D1",
"C 	c #ADC722",
"D 	c #C7D968",
"E 	c #F4F7E1",
"F 	c #FDFDFA",
"G 	c #F7FAEC",
"H 	c #F7FAEB",
"I 	c #F8FBEF",
"J 	c #FEFEFE",
"K 	c #E8EFC3",
"L 	c #B8CE40",
"M 	c #D6E390",
"N 	c #BCD14A",
"O 	c #B6CE35",
"P 	c #ACC232",
"Q 	c #B5CD35",
"R 	c #D5E28D",
"S 	c #D7E493",
"T 	c #CEDD7A",
"U 	c #F4F7E2",
"V 	c #FDFEF9",
"W 	c #BBD14A",
"X 	c #B8D136",
"Y 	c #A1B62F",
"Z 	c #66741E",
"` 	c #94A82B",
" .	c #EFF4D4",
"..	c #D8E495",
"+.	c #67751E",
"@.	c #333333",
"#.	c #323232",
"$.	c #9DB32E",
"%.	c #FCFDF8",
"&.	c #B7CE3F",
"*.	c #EAF1C7",
"=.	c #B4CD35",
"-.	c #AFC633",
";.	c #93A62B",
">.	c #1D2108",
",.	c #131313",
"'.	c #2D2D2D",
").	c #2E2E2E",
"!.	c #9EB22E",
"~.	c #E0EAAD",
"{.	c #C0D455",
"].	c #93A72B",
"^.	c #4C5516",
"/.	c #121212",
"(.	c #292929",
"_.	c #313131",
":.	c #2A2A2A",
"<.	c #64711D",
"[.	c #ABC132",
"}.	c #E1EBAE",
"|.	c #C4D761",
"1.	c #FEFFFE",
"2.	c #B8D036",
"3.	c #A7BD31",
"4.	c #4E5817",
"5.	c #0C0E03",
"6.	c #272727",
"7.	c #8DA029",
"8.	c #B0C733",
"9.	c #768623",
"0.	c #1B1B1B",
"a.	c #9CB12E",
"b.	c #B1C834",
"c.	c #AEC633",
"d.	c #90A42B",
"e.	c #31370E",
"f.	c #151515",
"g.	c #2C2C2C",
"h.	c #111111",
"i.	c #63701D",
"j.	c #9FB52F",
"k.	c #B7CF36",
"l.	c #D5E390",
"m.	c #FFFFFE",
"n.	c #B6CF35",
"o.	c #95A92B",
"p.	c #4B5516",
"q.	c #0F0F0F",
"r.	c #101010",
"s.	c #68761E",
"t.	c #C6D867",
"u.	c #F2F7DD",
"v.	c #F6F9E6",
"w.	c #F7F9E8",
"x.	c #E7EEBF",
"y.	c #556019",
"z.	c #040401",
"A.	c #242424",
"B.	c #2F2F2F",
"C.	c #94A72B",
"D.	c #B1CA2D",
"E.	c #AEC533",
"F.	c #819426",
"G.	c #161616",
"H.	c #303030",
"I.	c #98AC2C",
"J.	c #8C9F29",
"K.	c #3B4311",
"L.	c #2B2B2B",
"M.	c #5C681B",
"N.	c #A5BB30",
"O.	c #B7CF35",
"P.	c #9BB02D",
"Q.	c #424B13",
"R.	c #070802",
"S.	c #768723",
"T.	c #B0C833",
"U.	c #64721D",
"V.	c #1F1F1F",
"W.	c #95A92C",
"X.	c #869927",
"Y.	c #0F1204",
"Z.	c #343434",
"`.	c #282828",
" +	c #262626",
".+	c #869827",
"++	c #444D14",
"@+	c #7D7D7D",
"#+	c #A9A9A9",
"$+	c #6F6F6F",
"%+	c #676767",
"&+	c #E3E3E3",
"*+	c #DCDCDC",
"=+	c #545454",
"-+	c #353535",
";+	c #373737",
">+	c #BCBCBC",
",+	c #9C9C9C",
"'+	c #F1F1F1",
")+	c #E6E6E6",
"!+	c #ECECEC",
"~+	c #858585",
"{+	c #3B3B3B",
"]+	c #656565",
"^+	c #F5F5F5",
"/+	c #F6F6F6",
"(+	c #D4D4D4",
"_+	c #494949",
":+	c #F0F0F0",
"<+	c #3F3F3F",
"[+	c #9B9B9B",
"}+	c #E1E1E1",
"|+	c #AFAFAF",
"1+	c #AAAAAA",
"2+	c #CDCDCD",
"3+	c #BABABA",
"4+	c #363636",
"5+	c #707070",
"6+	c #FCFCFC",
"7+	c #FBFBFB",
"8+	c #9E9E9E",
"9+	c #A7A7A7",
"0+	c #666666",
"a+	c #222222",
"b+	c #515151",
"c+	c #838383",
"d+	c #696969",
"e+	c #414141",
"f+	c #B0B0B0",
"g+	c #C5C5C5",
"h+	c #989898",
"i+	c #777777",
"j+	c #C3C3C3",
"k+	c #444444",
"l+	c #3E3E3E",
"m+	c #979797",
"n+	c #F4F4F4",
"o+	c #EDEDED",
"p+	c #D9D9D9",
"q+	c #F2F2F2",
"r+	c #ACACAC",
"s+	c #CFCFCF",
"t+	c #3C3C3C",
"u+	c #090909",
"v+	c #393939",
"w+	c #B9B9B9",
"x+	c #D7D7D7",
"y+	c #F7F7F7",
"z+	c #747474",
"A+	c #DBDBDB",
"B+	c #EAEAEA",
"C+	c #9F9F9F",
"D+	c #636363",
"E+	c #C8C8C8",
"F+	c #909090",
"G+	c #434343",
"H+	c #D8D8D8",
"I+	c #BEBEBE",
"J+	c #FDFDFD",
"K+	c #595959",
"L+	c #3D3D3D",
"M+	c #525252",
"N+	c #717171",
"O+	c #C0C0C0",
"P+	c #565656",
"Q+	c #DADADA",
"R+	c #FAFAFA",
"S+	c #5E5E5E",
"T+	c #B4B4B4",
"U+	c #626262",
"V+	c #8F8F8F",
"W+	c #A4A4A4",
"X+	c #ADADAD",
"Y+	c #D0D0D0",
"Z+	c #999999",
"`+	c #B5B5B5",
" @	c #464646",
".@	c #969696",
"+@	c #EEEEEE",
"@@	c #D3D3D3",
"#@	c #B2B2B2",
"$@	c #383838",
"%@	c #D1D1D1",
"&@	c #5F5F5F",
"*@	c #E7E7E7",
"=@	c #888888",
"-@	c #A8A8A8",
";@	c #727272",
">@	c #454545",
",@	c #CCCCCC",
"'@	c #787878",
")@	c #C9C9C9",
"!@	c #6C6C6C",
"~@	c #ABABAB",
"{@	c #8D8D8D",
"]@	c #B7B7B7",
"^@	c #686868",
"/@	c #F9F9F9",
"(@	c #505050",
"_@	c #A1A1A1",
":@	c #BDBDBD",
"<@	c #757575",
"[@	c #AEAEAE",
"}@	c #A6A6A6",
"|@	c #0D0D0D",
"1@	c #5C5C5C",
"2@	c #0C0C0C",
"3@	c #3A3A3A",
"4@	c #CBCBCB",
"5@	c #EBEBEB",
"6@	c #1D1D1D",
"7@	c #080808",
"8@	c #0B0B0B",
"9@	c #202020",
"0@	c #212121",
"a@	c #171717",
"b@	c #040404",
"c@	c #0A0A0A",
"                                                                                                                                ",
"                                                              . + @                                                             ",
"                                                            . . . # $ %                                                         ",
"                                                        # . . . # & . + *                                                       ",
"                                                    = = . . . . . . . # . & -                                                   ",
"                                                # . . . . . ; > , ' ) + + . . ! ~                                               ",
"                                              = . # . . + { ] ^ / ( _ ) . . + . + $                                             ",
"                                          & # . . . . + : < [ [ } [ | 1 2 + . . # & . 3                                         ",
"                                      . . . . . . . . { 4 [ 5 6 7 8 } 9 0 2 . . . . + . + ~                                     ",
"                                  . a . . . . . . . = b c d e { { ) f [ g h . . . . . + . . @ i                                 ",
"                                . a . . . . . . . . ) : [ j k + . l m n o > + . . . . . . + . . !                               ",
"                            a . . . . . . . . . . . ) k [ p : + . ; q n r s + . . . . . . . . + . . t                           ",
"                        u a u . . . . . . . . . . . ) v [ w : + . ; x n w s + . . . . . . . . . . + . $ i                       ",
"                    . a a & . . . . . . . . . . . . { { [ o > y y z A n B C + . . . . . . . . . . . + . . $ -                   ",
"                  . . . . . . . . . . . . . . . . ) D E [ F G G G H I J } K L . . . . . . . . . . . . . . . . @                 ",
"              . . & # . . . . . . . . . . . . . . 2 M [ J [ [ [ [ [ [ [ [ J N . . . . . . . . . . . . . . . + . O P             ",
"                $ Q . . . . . . . . . . . . . . . 2 R [ [ [ [ S T U [ [ [ V W . . . . . . . . . . . . . . + . X Y Z             ",
"                  ` Q . + . . . . . . . . . . . . 2 R [ [ [  .L . ..[ [ [ V W . . . . . . . . . . . . . + . * +.                ",
"          @.#.        $.@ . . + . . . . . . . . . 2 R [ [ [ %.] &.*.[ [ [ V W . . . . . . . . . . # . =.-.;.>.    ,.'.          ",
"          @.@.#.).      +.!.O =.+ . . . . . . . . 2 R [ [ J [ ~.{.[ J [ [ V W . . . . . . . . . + Q Q ].^.    /.(.@.@.          ",
"          #.@.@.#._.:.      <.[.O . . . . . . . . 2 R [ [ [ [ }.|.[ 1.[ [ V W . . . . . . . + . 2.3.4.5.    6._.@.@.#.          ",
"          #.@.@.#.@.@._.        7.$ + . # . . . . 2 R [ [ [ J [ [ J [ [ [ V W . . . . a + . + 8.9.      0._.@.#.@.@.@.          ",
"          #.@.@.@.@.#.@.#.).        a.b.Q + . . . 2 R [ [ [ [ [ [ [ [ [ [ V W . . . . . O c.d.e.    f.g.@.@.#.@.@.@.#.h.        ",
"          #.@.@.@.@.@.#.@.@._.g.      i.j.k.. + . 2 l.[ [ [ [ [ [ [ [ [ [ m.N . . + . n.o.p.    q.(.#.@.@.@.@.@.@.@.#.r.        ",
"          #.@.@.@.@.@.@.@.#.@.#._.        s.-.Q . ) t.u.v.v.v.v.v.v.v.v.w.x.L + + O c.y.z.    A._.#.@.#.@.@.@.@.@.@.#.r.        ",
"          #.@.@.@.@.@.@.@.@.@.#.@.@.B.        C.3 . 2 > > > > > > > > > , D.u . E.F.      G.H.@.@.#.@.@.@.@.@.@.@.@.#.r.        ",
"          #.@.@.@.@.@.@.@.@.@.@.@.#.@.#.'.        I.$ Q + . . . . . . . . O $ J.K.    f.L.@.@.#.@.@.@.@.@.@.@.@.@.@.#.r.        ",
"          #.@.@.@.@.@.@.@.@.@.@.@.@.#.@.@.#.g.      M.N.O . + . . . + . O.P.Q.R.    :._.@.@.@.@.@.@.@.@.@.@.@.@.@.@.#.h.        ",
"          #.@.@.@.@.@.@.@.@.@.@.@.@.@.@.@.@.@._.        S.@ . . # . . T.U.      V.#.@.#.@.@.@.@.@.@.@.@.@.@.@.@.@.@.#.h.        ",
"          #.@.@.@.@.@.@.@.@.@.@.@.@.@.@.@.@.@.#.@.B.        W.c.Q t X.Y.    G.).Z.@.#.@.@.@.@.@.@.@.@.@.@.@.@.@.@.@.#.h.        ",
"          #.@.@.@.#.g.(.'.#.@.@.@.@.@.@.@.#.).`. +H.#.).        .+++    ,.L.@.@.#.@.@.@.@.@.@.@.#._.@.@.@.@.@.@.@.@.#.h.        ",
"          #.@.@.#.).@+#+$+#.@.@.@.@.@.@.@.@.%+&+*+=+B.#.#.:.          `.#.@.@.#.@.@.@.@.@.@._.:.-+;+(.B.#.@.@.@.@.@.#.h.        ",
"          #.@.#.-+>+[ [ [ ,+H.#.@.@.@.@.#.;+'+[ [ )+_.#.@.@.H.      #.@.#.@.@.@.@.@.@.@.#.-+%+*+[ [ !+~+{+#.@.@.@.@.#.h.        ",
"          #.@.#.]+^+[ [ /+(+Z.#.H.'.).H.H._+[ [ [ :+<+_.#.@.Z.    B.@.#.@.@.@.@.@.@.@.#.@.[+[ }+|+1+2+[ 3+4+#.@.@.@.#.h.        ",
"          #.@.#.5+6+[ 7+8+9+0+a+b+c+d+e+f+g+#+[ [ h+'.#.@.@.Z.    '.@.@.@.@.@.@.@.@.@.B.i+[ j+k+B.g.l+m+[ ,+(.@.@.@.#.h.        ",
"          #.@.#.b+&+[ n+[+o+6+p+q+J )+r+[ s+t+=+_+#.#.@.@.@.Z.u+  L.@.@.@.@.@.@.@.@.@.v+w+J Z.#.#.#.#.H.x+y+@.#.@.@.#.h.        ",
"          #.@.@.g.z+A+B+C+D+E+[ [ J !+h+F+`.#.H._.@.@.@.@.@.Z.u+  :.@.@.@.@.@.@.@.@.@.G+H+I+).@.@.@.@.:.8+J+K+B.@.@.#.h.        ",
"          #.@.@.@.g.L+M+L+).-+[ [ [ [ /+N+#.@.@.@.@.@.@.@.@.Z.u+  :.@.@.@.@.@.@.@.@.@.G+x+O+'.@.@.@.@.(.C+J+P+B.@.@.#.h.        ",
"          #.@.@.@.@.#._.#.@.v+Q+R+x+[ [ S+#.@.@.@.@.@.@.@.@.Z.u+  :.@.@.@.@.@.@.@.@.@.4+T+[ ;+_.@.@.#.@.H+/+).#.@.@.#.h.        ",
"          #.@.@.@.@.@.@.@.@.@.U+V+W+C+X+;+@.@.@.@.@.@.@.@.@.Z.u+  :.@.@.@.@.@.@.@.@.@.H.5+y+Y+{+-+-+{+Z+[ V+L.@.@.@.#.h.        ",
"          #.@.@.@.@.@.@.@.@.#.6.`+[  @).#.@.@.@.@.@.@.@.@.@.Z.u+  :.@.@.@.@.@.@.@.@.@.#.'..@J++@9+8+@@[ #@'.@.@.@.@.#.h.        ",
"          #.@.@.@.@.@.@.@.@.#.$@%@y+6.#.@.@.@.@.@.@.@.@.@.@.Z.u+  :.@.@.@.@.@.@.@.@.@.#.g.L.&@`+*@!+g+i+;+#.@.@.@.@.#.h.        ",
"          #.@.@.@.@.@.@.@.@.#.v+=@-@L.@.@.@.@.@.@.@.@.@.@.@.Z.u+  :.@.@.@.@.@.@.@.@.@.$@1+J+;@B.4+;+-+@.#.@.@.@.@.@.#.h.        ",
"          #.@.@.@.@.@.@.@.#.>@X+,@'@Z.#.@.@.@.@.@.@.@.@.@.@.Z.u+  :.@.@.@.@.@.@.@.@.#.]+[ [ E+6.@.@.@.@.@.@.@.@.@.@.#.h.        ",
"          #.@.@.@.@.@.@.@.(.)@[ [ [ i+'.@.@.@.@.@.@.@.@.@.@.Z.u+  :.@.@.@.@.@.@.@.#._.p+[ [ !@).@.@.@.@.@.@.@.@.@.@.#.h.        ",
"          #.@.@.@.@.@.@.#. +[ [ J [ ~@(.@.@.@.@.@.@.@.@.@.@.Z.u+  :.@.@.@.@.@.@.@.:.{@[ [ I+H.#.@.@.@.@.@.@.@.@.@.@.#.h.        ",
"          #.@.#.@.@.@.@.@.:.]@[ [ J ^@).@.@.@.@.@.@.@.@.@.@.Z.u+  :.@.@.@.@.@.@._.e+/@[ /@(@#.@.@.@.@.@.@.@.@.@.@.@.#.h.        ",
"            #.@.@.#.@.@.@.@.-+_@:@<@:.@.@.@.@.@.@.@.@.@.@.@.Z.u+  :.@.@.@.@.@.#.H.[@J [ }@4+@.@.@.@.@.@.@.@.@.#.@.@.B.|@        ",
"              g.@.@.@.@.@.@.#.g.L.).@.@.@.@.@.@.@.@.@.@.@.@.Z.u+  :.@.@.@.@.@.#.1@:+[ +@b+_.@.@.@.@.@.@.@.@.#.@.@.A.|@          ",
"                  H.@.#.@.@.@.#.#.#.@.@.@.@.@.@.@.@.@.@.@.@.Z.u+  :.@.@.@.@.@.;+X+[ [ C+L.#.@.@.@.@.@.@.@.@.@.'.2@              ",
"                     +_.@.@.#.@.@.@.@.@.@.@.@.@.@.@.@.@.@.@.Z.u+  :.@.@.@.@.@.3@4@[ 5@#.#.@.@.@.@.@.@.@.#.B.6@                  ",
"                        `.#.@.#.@.@.@.@.@.@.@.@.@.@.@.@.@.@.Z.u+  :.@.@.@.@.@.@.]+#+K+B.@.@.@.@.@.#.@.H.a+7@                    ",
"                            L.Z.@.#.@.@.@.@.@.@.@.@.@.@.@.@.Z.u+  :.@.@.@.@.@.#._._._.@.@.@.@.#.@.Z. +8@                        ",
"                              0.H.#.@.@.#.@.@.@.@.@.@.@.@.@.Z.u+  :.@.@.@.@.@.@.@.@.@.@.#.@.@.@.B.r.                            ",
"                                  6.H.@.@.@.@.@.@.@.@.@.@.@.Z.u+  :.@.@.@.@.@.@.@.@.@.#.@.@.).9@                                ",
"                                      6.@.@.#.@.@.@.@.@.@.@.Z.u+  :.@.@.@.@.@.@.@.@.#.@.#.0@2@                                  ",
"                                          ).@.@.#.@.@.@.@.@.Z.u+  :.@.@.@.@.@.@.#.@.@.:.8@                                      ",
"                                            9@H.#.@.#.@.@.@.Z.u+  :.@.@.@.@.#.@.#.B.a@                                          ",
"                                                6.H.@.@.@.@.Z.u+  :.@.@.#.@.Z.B.9@b@                                            ",
"                                                    `.@.@.#.Z.u+  :.@.#.@.@.a+c@                                                ",
"                                                        B.@.Z.u+  :.@.#.'.|@                                                    ",
"                                                          A._.    :.#.a+                                                        ",
"                                                                                                                                ",
"                                                                                                                                "};
