/* XPM */
static char * dff_xpm[] = {
"32 32 163 2",
"  	c None",
". 	c #B1C933",
"+ 	c #B3CB35",
"@ 	c #B4CC34",
"# 	c #B3CB34",
"$ 	c #AFC733",
"% 	c #B4CC35",
"& 	c #B0C92C",
"* 	c #AFC827",
"= 	c #AEC533",
"- 	c #B7CD3E",
"; 	c #ECF2CD",
"> 	c #F5F8E5",
", 	c #C7D96A",
"' 	c #B2CB32",
") 	c #B4CB35",
"! 	c #B4CB34",
"~ 	c #AEC827",
"{ 	c #F4F8E4",
"] 	c #CFDE81",
"^ 	c #C0D459",
"/ 	c #FFFFFF",
"( 	c #BBD04B",
"_ 	c #B0C733",
": 	c #ACC232",
"< 	c #AFC829",
"[ 	c #FFFEFF",
"} 	c #AFC82A",
"| 	c #B2CA30",
"1 	c #E1EBB0",
"2 	c #CEDE7C",
"3 	c #B3CC34",
"4 	c #ABC51E",
"5 	c #FEFFFE",
"6 	c #A9C418",
"7 	c #ABC61E",
"8 	c #DFE9AA",
"9 	c #CADB71",
"0 	c #AFC633",
"a 	c #B1CA2E",
"b 	c #E8EFC1",
"c 	c #FEFEFE",
"d 	c #FEFEFF",
"e 	c #B3CB33",
"f 	c #B2CA34",
"g 	c #A7BD30",
"h 	c #B6CE35",
"i 	c #B1CA2D",
"j 	c #ECF1CB",
"k 	c #DDE7A3",
"l 	c #CEDD7C",
"m 	c #A2B82F",
"n 	c #333333",
"o 	c #323232",
"p 	c #97AB2C",
"q 	c #B8D135",
"r 	c #E8F0C4",
"s 	c #D6E392",
"t 	c #B7D035",
"u 	c #819225",
"v 	c #242423",
"w 	c #313131",
"x 	c #2F2F2E",
"y 	c #7D8D24",
"z 	c #A9BF31",
"A 	c #F8FAEC",
"B 	c #EFF4D5",
"C 	c #BAD236",
"D 	c #9AAF2D",
"E 	c #2F2F2F",
"F 	c #2E2E2D",
"G 	c #8B9D28",
"H 	c #EDF2CF",
"I 	c #B8D136",
"J 	c #91A42A",
"K 	c #282828",
"L 	c #343434",
"M 	c #1F1F1F",
"N 	c #B3CC33",
"O 	c #C6D866",
"P 	c #D2E086",
"Q 	c #CFDE7F",
"R 	c #B4CC33",
"S 	c #A7BE30",
"T 	c #2D2D2C",
"U 	c #303030",
"V 	c #96AA2C",
"W 	c #B7CF36",
"X 	c #59651A",
"Y 	c #232423",
"Z 	c #202020",
"` 	c #323231",
" .	c #8C9F29",
"..	c #A9C031",
"+.	c #B9D136",
"@.	c #788923",
"#.	c #2D2D2D",
"$.	c #2A2A2A",
"%.	c #5B5B5B",
"&.	c #353535",
"*.	c #636363",
"=.	c #2D2E2D",
"-.	c #5C681B",
";.	c #272727",
">.	c #252525",
",.	c #959595",
"'.	c #EEEEEE",
").	c #2C2C2C",
"!.	c #232323",
"~.	c #292929",
"{.	c #424242",
"].	c #DCDCDC",
"^.	c #E9E9E9",
"/.	c #E5E5E5",
"(.	c #4C4C4C",
"_.	c #AFAFAF",
":.	c #AEAEAE",
"<.	c #949494",
"[.	c #B8B8B8",
"}.	c #898989",
"|.	c #EFEFEF",
"1.	c #868686",
"2.	c #858585",
"3.	c #242424",
"4.	c #E1E1E1",
"5.	c #262626",
"6.	c #3D3D3D",
"7.	c #F4F4F4",
"8.	c #363636",
"9.	c #9C9C9C",
"0.	c #505050",
"a.	c #C3C3C3",
"b.	c #494949",
"c.	c #1D1D1D",
"d.	c #DBDBDB",
"e.	c #3B3B3B",
"f.	c #686868",
"g.	c #BBBBBB",
"h.	c #E4E4E4",
"i.	c #DADADA",
"j.	c #4D4D4D",
"k.	c #F1F1F1",
"l.	c #1E1E1E",
"m.	c #D1D1D1",
"n.	c #D6D6D6",
"o.	c #D7D7D7",
"p.	c #464646",
"q.	c #9B9B9B",
"r.	c #5C5C5C",
"s.	c #5A5A5A",
"t.	c #A7A7A7",
"u.	c #FCFCFC",
"v.	c #484848",
"w.	c #2E2E2E",
"x.	c #C5C5C5",
"y.	c #2B2B2B",
"z.	c #C6C6C6",
"A.	c #626262",
"B.	c #131313",
"C.	c #1B1B1B",
"D.	c #212121",
"E.	c #0C0C0C",
"F.	c #181818",
"                                .                               ",
"                            + @ # $                             ",
"                        + # % & * # @ =                         ",
"                      + + + - ; > , ' # # .                     ",
"                  ) + @ ! ~ { ] ^ / ( % % # _ :                 ",
"              ) ) % % % % < [ } | 1 2 + % % # @ #               ",
"          ) # 3 % % % % % 4 5 6 7 8 9 + % % % % # # 0           ",
"        @ + % @ % % % % a b c / / d d e % % % % # % % f         ",
"        g h # % # % % % i j / k l / / # % % % % % ) @ m         ",
"    n o     p q # % % % i j c r s / / # % % # % # t u   v w     ",
"    w n o x   y z % + # i j / A B 5 / # % ) # C D     E n       ",
"    w n n o w F   G 3 # i H / / / / / # # I J     K L o n M     ",
"    w n n n o o o     z N O P P P P Q R S     T n o n n n M     ",
"    w n n n n n o o U     V W + % + % X   Y o o n o n n n Z     ",
"    w n n n n o o n n o `    ...+.@.    #.o n o n o n n n Z     ",
"    w n $.%.&.n o o w *.%.E =.  -.  ;.L o n n K ;.>.o o n Z     ",
"    w U ,./ '.;.).E !./ / ~.n w   o o n o n {.].^./.(.n n Z     ",
"    w E _./ :.<.[.}.|.1.2.#.n 3.  n o n n ).4.(.5.6.7.3.n Z     ",
"    w n 8.9.0.a./ 4.b.w w n o c.  n n n n o d.;.n 5.d.e.n Z     ",
"    w n n U o f.g.h.L n n n o c.  n n n n ).i.j.#.6.k.3.n Z     ",
"    w n n n n 3.c l.n n n n o c.  n n n n n E m.n.o.p.n n Z     ",
"    w n n n n j.q.~.n n n n o c.  n n n n n / r.~.).o o n Z     ",
"    w n o n M / / s.n n n n o c.  n n o #.t.u.o n n n n n Z     ",
"      o o n ).t.d.o n n n n o c.  n n n v./ 1.o o n o o n M     ",
"        o n n #.;.n n n n n o c.  n n w.x.|.y.n n o n o M       ",
"          $.E o n o n n n n o c.  n n w.z.A.n n o L Z           ",
"              ;.o n o n n n o c.  n n o ).w o n K B.            ",
"                  #.n o n n o c.  n n o n o U C.                ",
"                      ).n o o c.  n n o L >.                    ",
"                        $.E o c.  n L D.E.                      ",
"                            y.3.$.w.F.                          ",
"                                                                "};
